# xmcd
#
# Track frame offsets: 
#        150
#        18435
#        36987
#        55323
#        70174
#
# Disc length: 1159 seconds
#
# Revision: 0
# Processed by: cddbd v1.5.2PL0 Copyright (c) Steve Scherf et al.
# Submitted via: ExactAudioCopy v1.3
#
DISCID=3f048505
DTITLE=Sentiment Falls - Nothing On Me
DYEAR=2015
DGENRE=Country
TTITLE0=Nothing On Me
TTITLE1=Six Feet Under
TTITLE2=We Shared A Promise
TTITLE3=Good Thing
TTITLE4=You're Gonna Find Me
EXTD=
EXTT0=
EXTT1=
EXTT2=
EXTT3=
EXTT4=
PLAYORDER=
